<?xml version="1.0" encoding="utf-8"?>
<!-- Generator: Adobe Illustrator 25.0.0, SVG Export Plug-In . SVG Version: 6.00 Build 0)  -->
<svg version="1.1" xmlns="http://www.w3.org/2000/svg" xmlns:xlink="http://www.w3.org/1999/xlink" x="0px" y="0px"
	 viewBox="0 0 286 38" style="enable-background:new 0 0 286 38;" xml:space="preserve">
<style type="text/css">
	.st0{fill:none;}
</style>
<g id="Boundingbox">
	<rect class="st0" width="286" height="38"/>
</g>
<g id="DAI">
	<g>
		<path d="M4.99,3.62H2.54C2.18,1.42,2.38,0.96,9.73,0.96h10.35c14.69,0,21.06,6.63,21.06,17.54c0,10.51-6.02,17.55-20.61,17.55
			H1.36c-0.15-0.51-0.15-1.33,0-1.99c5.46-0.31,6.43-0.66,6.43-4.08V5.91C7.79,3.92,7.28,3.62,4.99,3.62z M34.31,19.48
			c0-9.79-5.1-15.5-14.89-15.5h-5.25v25.65c0,3.11,1.12,3.62,5.87,3.62C28.75,33.25,34.31,30.44,34.31,19.48z"/>
		<path d="M65.73,1.32c0.15,1.12,0.51,1.99,1.33,3.77l11.78,26.88c0.56,1.33,1.12,1.79,3.72,1.79h1.17c0.31,1.48,0,2.29-1.33,2.29
			H65.88c-0.15-0.51-0.15-1.33,0-1.99c5.56-0.15,6.12-0.61,5.56-1.94l-3.21-7.7H55.07l-2.09,5.56c-1.17,3.01-1.17,3.78,1.63,3.78H59
			c0.36,1.48,0,2.29-1.27,2.29H43.13c-0.15-0.51-0.15-1.33,0-1.99c3.93-0.51,4.39-0.82,5.76-4.08L59,6.06
			c1.68-3.93,2.35-4.74,4.74-4.74H65.73z M67.05,21.62L61.49,8.36l-5.3,13.26H67.05z"/>
		<path d="M103.88,1.98c0.15,0.46,0.15,1.48,0,1.99c-4.44,0.31-5.1,1.28-5.1,3.42v24.23c0,1.79,0.51,2.14,2.65,2.14h2.75
			c0.36,1.48,0.2,2.29-1.33,2.29h-15.5c-0.2-0.51-0.2-1.33,0-1.99c4.08-0.66,5.05-1.17,5.05-3.27V6.42c0-1.84-0.46-2.14-2.81-2.14
			h-2.45c-0.31-1.33,0-2.29,2.14-2.29H103.88z"/>
		<path d="M162.63,1.98c0.21,0.66,0.21,1.33,0,1.99c-4.74,0.31-5.05,1.12-4.89,2.6l2.45,24.89c0.15,1.63,0.97,1.78,4.9,2.29
			c0.15,1.48,0,2.29-1.43,2.29h-18c-0.2-0.66-0.2-1.33,0-1.99l2.76-0.15c4.28-0.25,5-0.82,4.74-3.31l-2.29-22.24l-12.24,25.71
			c-0.92,1.84-1.33,2.14-2.5,2.14L122.03,8.36l-1.63,22.9c-0.15,1.99-0.15,2.5,5.25,2.5h2.75c0.36,1.48,0.15,2.29-1.28,2.29h-16.73
			c-0.15-0.66-0.15-1.33,0-1.99c5.61-0.31,6.07-1.33,6.22-3.47l2.09-23.97c0.15-1.63-0.15-2.19-5.2-2.35
			c-0.31-1.17,0-2.29,2.14-2.29h10.3l12.8,24.53l11.78-24.53H162.63z"/>
		<path d="M190.78,1.98c0.15,0.46,0.15,1.48,0,1.99c-5.36,0.31-6.38,0.77-6.38,4.08V30.6c0,1.68,0.87,2.14,2.29,2.14h3.26
			c3.78,0,4.28-0.26,6.43-4.85l1.43-3.16c1.48-0.05,2.24,0.56,1.68,2.14c-1.07,3.06-1.99,6.02-2.65,9.18h-24.89
			c-0.1-0.66-0.15-1.33,0-1.99c4.95-0.31,6.07-0.97,6.07-4.29V6.42c0-1.84-0.66-2.14-2.81-2.14h-2.45c-0.3-1.33,0-2.29,2.14-2.29
			H190.78z"/>
		<path d="M232.25,1.98c0.15,2.29,0.46,4.69,0.81,6.88c0.26,1.58-0.36,2.45-1.99,2.3l-0.66-2.3c-0.87-3.11-1.94-3.93-4.74-3.93
			h-8.16v13.11h5.36c1.53,0,1.84-0.51,1.99-1.84l0.36-2.6h0.61c1.02,0,1.58,0.36,1.48,1.94c-0.15,3.21-0.15,6.73,0,10.05
			c-0.46,0.2-1.22,0.25-1.78,0c-0.66-3.98-1.33-4.44-2.65-4.44h-5.36v8.98c0,1.84,0.46,2.6,3.93,2.6h4.38
			c3.78,0,4.29-0.26,6.43-4.85l1.43-3.16c1.48-0.05,2.19,0.61,1.68,2.14c-1.02,2.91-1.99,6.02-2.65,9.18h-28.15
			c-0.2-0.66-0.2-1.33,0-1.99c5.41-0.31,6.38-0.66,6.38-4.08V6.42c0-1.84-0.46-2.14-2.75-2.14h-2.45c-0.2-1.33,0-2.29,2.24-2.29
			H232.25z"/>
		<path d="M244.85,4.28h-2.45c-0.36-1.33,0-2.29,2.09-2.45c2.45-0.2,5.51-0.2,12.65-0.2c9.79,0,15.2,4.64,15.2,11.63
			c0,4.28-2.65,7.75-6.88,9.54c0,0,3.82,3.52,5.76,5.1c6.73,5.41,8.98,5.87,13.41,5.87c0.46,1.79-0.81,3.11-6.22,3.11
			c-4.74,0-7.86-1.02-11.63-4.29c-1.68-1.48-3.52-3.52-4.85-5.87c-1.28-2.29-1.38-2.45-4.49-2.45h-3.42v7.5
			c0,1.48,0.46,1.99,3.11,1.99h2.6c0.15,1.48,0,2.29-1.48,2.29h-16.07c-0.1-0.56-0.15-1.33,0-1.99c4.44-0.31,5.46-0.82,5.46-3.93
			V6.57C247.65,4.58,246.94,4.28,244.85,4.28z M256.47,21.31c5.05,0,9.13-0.82,9.13-7.7c0-6.89-4.08-9.03-9.84-9.03h-1.74v16.73
			H256.47z"/>
	</g>
</g>
</svg>
