<svg version="1.2" xmlns="http://www.w3.org/2000/svg" viewBox="0 0 58 58" width="58" height="58">
	<title>1_monthly_sales-svg</title>
	<style>
		.s0 { fill: #effff1 } 
		.s1 { fill: #11c15b } 
	</style>
	<path id="Layer" fill-rule="evenodd" class="s0" d="m29 1c15.4 0 28 12.5 28 28 0 15.5-12.6 28-28 28-15.4 0-28-12.5-28-28 0-15.5 12.6-28 28-28z"/>
	<path id="Layer" class="s1" d="m43 18.2c-0.4 1-0.6 2.1-0.9 3.1-0.2 0.4-0.2 0.8-0.4 1.1-0.3 0.6-0.7 0.7-1.2 0.3-1.1-0.8-1.1-0.8-2.2 0.2q-4.8 4.4-9.5 8.8c-0.4 0.3-0.5 0.3-0.9 0-1.3-1.4-2.7-2.7-4.1-4.1-0.4-0.4-0.7-0.4-1.1 0-1.6 1.4-3.2 2.8-4.7 4.2-0.4 0.3-0.7 0.5-1.1-0.1-0.2-0.3-0.5-0.7-0.9-0.9q0-0.1 0-0.2 3.3-2.9 6.6-5.8c0.6-0.6 0.8-0.6 1.5 0 1.2 1.3 2.5 2.5 3.7 3.8 0.4 0.4 0.8 0.4 1.2 0q4.2-3.9 8.4-7.7c0.4-0.5 0.6-0.8 0-1.3-0.7-0.6-0.6-1.2 0.4-1.4 1.4-0.5 2.7-0.8 4.1-1.2 0.6-0.1 1 0.1 1.1 0.7q0 0.3 0 0.5z"/>
	<path id="Layer" class="s1" d="m40.2 33q0 3.6 0.1 7.2c0 0.6-0.2 0.8-0.8 0.8q-2.4-0.1-4.7 0c-0.6 0-0.8-0.2-0.8-0.7q0-4.8 0-9.5c0-0.4 0.1-0.7 0.5-1q2.5-2.3 4.9-4.7c0.5-0.4 0.7-0.4 0.8 0.3 0.1 0.2 0 0.4 0 0.7q0 3.4 0 6.9z"/>
	<path id="Layer" class="s1" d="m23.2 41q-0.5 0-0.9 0-1.8 0-3.6 0-0.5 0-0.9 0c-0.4-0.1-0.4-0.4-0.4-0.7q0-2 0-4.1c0-0.3 0-0.6 0.3-0.8q2.8-2.5 5.6-5c0.3 0.3 0.3 0.7 0.3 1.1q0 4.4 0.1 8.9c0 0.3-0.1 0.5-0.5 0.6z"/>
	<path id="Layer" class="s1" d="m31.8 32.2c0.1 0.3 0.1 0.5 0.1 0.8q0 3.5 0 7c0 0.9-0.1 1-0.9 1q-2.4 0-4.7 0c-0.3 0-0.6-0.1-0.6-0.5q0-3.8 0-7.5c0 0 0 0 0.1-0.1 0.6 0.6 1.2 1.2 1.8 1.8 0.7 0.7 0.7 0.7 1.4 0.1 0.9-0.9 1.8-1.7 2.8-2.6z"/>
</svg>